<svg width="30" height="30" viewBox="0 0 30 30" fill="none" xmlns="http://www.w3.org/2000/svg">
<path d="M21.5625 21.5625H22.5V22.5H21.5625V21.5625Z" fill="#333333"/>
<path d="M21.5625 25.3125H22.5V26.25H21.5625V25.3125Z" fill="#333333"/>
<path d="M21.5625 17.8125H22.5V18.75H21.5625V17.8125Z" fill="#333333"/>
<path d="M17.8125 21.5625H18.75V22.5H17.8125V21.5625Z" fill="#333333"/>
<path d="M17.8125 25.3125H18.75V26.25H17.8125V25.3125Z" fill="#333333"/>
<path d="M22.9688 1.875H2.34375C2.21943 1.875 2.1002 1.92439 2.01229 2.01229C1.92439 2.1002 1.875 2.21943 1.875 2.34375V4.6875H23.4375V2.34375C23.4375 2.21943 23.3881 2.1002 23.3002 2.01229C23.2123 1.92439 23.0931 1.875 22.9688 1.875ZM3.75 3.75H2.8125V2.8125H3.75V3.75ZM5.625 3.75H4.6875V2.8125H5.625V3.75ZM7.5 3.75H6.5625V2.8125H7.5V3.75ZM22.5 3.75H21.5625V2.8125H22.5V3.75Z" fill="#333333"/>
<path d="M14.0625 17.8125H15V18.75H14.0625V17.8125Z" fill="#333333"/>
<path d="M2.34375 23.4375H7.5V12.6562C7.5 12.2833 7.64816 11.9256 7.91188 11.6619C8.1756 11.3982 8.53329 11.25 8.90625 11.25H12.6562V10.3125H13.5938V11.25H18.2812V10.3125H19.2188V11.25H23.4375V5.625H1.875V22.9688C1.875 23.0931 1.92439 23.2123 2.01229 23.3002C2.1002 23.3881 2.21943 23.4375 2.34375 23.4375Z" fill="#333333"/>
<path d="M8.90625 12.1875C8.78193 12.1875 8.6627 12.2369 8.57479 12.3248C8.48689 12.4127 8.4375 12.5319 8.4375 12.6562V15H28.125V12.6562C28.125 12.5319 28.0756 12.4127 27.9877 12.3248C27.8998 12.2369 27.7806 12.1875 27.6562 12.1875H24.375V13.125H23.4375V12.1875H19.2188V13.125H18.2812V12.1875H13.5938V13.125H12.6562V12.1875H8.90625Z" fill="#333333"/>
<path d="M25.3125 25.3125H26.25V26.25H25.3125V25.3125Z" fill="#333333"/>
<path d="M25.3125 17.8125H26.25V18.75H25.3125V17.8125Z" fill="#333333"/>
<path d="M25.3125 21.5625H26.25V22.5H25.3125V21.5625Z" fill="#333333"/>
<path d="M17.8125 17.8125H18.75V18.75H17.8125V17.8125Z" fill="#333333"/>
<path d="M10.3125 17.8125H11.25V18.75H10.3125V17.8125Z" fill="#333333"/>
<path d="M8.90625 28.125H27.6562C27.7806 28.125 27.8998 28.0756 27.9877 27.9877C28.0756 27.8998 28.125 27.7806 28.125 27.6562V15.9375H8.4375V27.6562C8.4375 27.7806 8.48689 27.8998 8.57479 27.9877C8.6627 28.0756 8.78193 28.125 8.90625 28.125ZM24.375 17.3438C24.375 17.2194 24.4244 17.1002 24.5123 17.0123C24.6002 16.9244 24.7194 16.875 24.8438 16.875H26.7188C26.8431 16.875 26.9623 16.9244 27.0502 17.0123C27.1381 17.1002 27.1875 17.2194 27.1875 17.3438V19.2188C27.1875 19.3431 27.1381 19.4623 27.0502 19.5502C26.9623 19.6381 26.8431 19.6875 26.7188 19.6875H24.8438C24.7194 19.6875 24.6002 19.6381 24.5123 19.5502C24.4244 19.4623 24.375 19.3431 24.375 19.2188V17.3438ZM24.375 21.0938C24.375 20.9694 24.4244 20.8502 24.5123 20.7623C24.6002 20.6744 24.7194 20.625 24.8438 20.625H26.7188C26.8431 20.625 26.9623 20.6744 27.0502 20.7623C27.1381 20.8502 27.1875 20.9694 27.1875 21.0938V22.9688C27.1875 23.0931 27.1381 23.2123 27.0502 23.3002C26.9623 23.3881 26.8431 23.4375 26.7188 23.4375H24.8438C24.7194 23.4375 24.6002 23.3881 24.5123 23.3002C24.4244 23.2123 24.375 23.0931 24.375 22.9688V21.0938ZM24.375 24.8438C24.375 24.7194 24.4244 24.6002 24.5123 24.5123C24.6002 24.4244 24.7194 24.375 24.8438 24.375H26.7188C26.8431 24.375 26.9623 24.4244 27.0502 24.5123C27.1381 24.6002 27.1875 24.7194 27.1875 24.8438V26.7188C27.1875 26.8431 27.1381 26.9623 27.0502 27.0502C26.9623 27.1381 26.8431 27.1875 26.7188 27.1875H24.8438C24.7194 27.1875 24.6002 27.1381 24.5123 27.0502C24.4244 26.9623 24.375 26.8431 24.375 26.7188V24.8438ZM20.625 17.3438C20.625 17.2194 20.6744 17.1002 20.7623 17.0123C20.8502 16.9244 20.9694 16.875 21.0938 16.875H22.9688C23.0931 16.875 23.2123 16.9244 23.3002 17.0123C23.3881 17.1002 23.4375 17.2194 23.4375 17.3438V19.2188C23.4375 19.3431 23.3881 19.4623 23.3002 19.5502C23.2123 19.6381 23.0931 19.6875 22.9688 19.6875H21.0938C20.9694 19.6875 20.8502 19.6381 20.7623 19.5502C20.6744 19.4623 20.625 19.3431 20.625 19.2188V17.3438ZM20.625 21.0938C20.625 20.9694 20.6744 20.8502 20.7623 20.7623C20.8502 20.6744 20.9694 20.625 21.0938 20.625H22.9688C23.0931 20.625 23.2123 20.6744 23.3002 20.7623C23.3881 20.8502 23.4375 20.9694 23.4375 21.0938V22.9688C23.4375 23.0931 23.3881 23.2123 23.3002 23.3002C23.2123 23.3881 23.0931 23.4375 22.9688 23.4375H21.0938C20.9694 23.4375 20.8502 23.3881 20.7623 23.3002C20.6744 23.2123 20.625 23.0931 20.625 22.9688V21.0938ZM20.625 24.8438C20.625 24.7194 20.6744 24.6002 20.7623 24.5123C20.8502 24.4244 20.9694 24.375 21.0938 24.375H22.9688C23.0931 24.375 23.2123 24.4244 23.3002 24.5123C23.3881 24.6002 23.4375 24.7194 23.4375 24.8438V26.7188C23.4375 26.8431 23.3881 26.9623 23.3002 27.0502C23.2123 27.1381 23.0931 27.1875 22.9688 27.1875H21.0938C20.9694 27.1875 20.8502 27.1381 20.7623 27.0502C20.6744 26.9623 20.625 26.8431 20.625 26.7188V24.8438ZM16.875 17.3438C16.875 17.2194 16.9244 17.1002 17.0123 17.0123C17.1002 16.9244 17.2194 16.875 17.3438 16.875H19.2188C19.3431 16.875 19.4623 16.9244 19.5502 17.0123C19.6381 17.1002 19.6875 17.2194 19.6875 17.3438V19.2188C19.6875 19.3431 19.6381 19.4623 19.5502 19.5502C19.4623 19.6381 19.3431 19.6875 19.2188 19.6875H17.3438C17.2194 19.6875 17.1002 19.6381 17.0123 19.5502C16.9244 19.4623 16.875 19.3431 16.875 19.2188V17.3438ZM16.875 21.0938C16.875 20.9694 16.9244 20.8502 17.0123 20.7623C17.1002 20.6744 17.2194 20.625 17.3438 20.625H19.2188C19.3431 20.625 19.4623 20.6744 19.5502 20.7623C19.6381 20.8502 19.6875 20.9694 19.6875 21.0938V22.9688C19.6875 23.0931 19.6381 23.2123 19.5502 23.3002C19.4623 23.3881 19.3431 23.4375 19.2188 23.4375H17.3438C17.2194 23.4375 17.1002 23.3881 17.0123 23.3002C16.9244 23.2123 16.875 23.0931 16.875 22.9688V21.0938ZM16.875 24.8438C16.875 24.7194 16.9244 24.6002 17.0123 24.5123C17.1002 24.4244 17.2194 24.375 17.3438 24.375H19.2188C19.3431 24.375 19.4623 24.4244 19.5502 24.5123C19.6381 24.6002 19.6875 24.7194 19.6875 24.8438V26.7188C19.6875 26.8431 19.6381 26.9623 19.5502 27.0502C19.4623 27.1381 19.3431 27.1875 19.2188 27.1875H17.3438C17.2194 27.1875 17.1002 27.1381 17.0123 27.0502C16.9244 26.9623 16.875 26.8431 16.875 26.7188V24.8438ZM13.125 17.3438C13.125 17.2194 13.1744 17.1002 13.2623 17.0123C13.3502 16.9244 13.4694 16.875 13.5938 16.875H15.4688C15.5931 16.875 15.7123 16.9244 15.8002 17.0123C15.8881 17.1002 15.9375 17.2194 15.9375 17.3438V19.2188C15.9375 19.3431 15.8881 19.4623 15.8002 19.5502C15.7123 19.6381 15.5931 19.6875 15.4688 19.6875H13.5938C13.4694 19.6875 13.3502 19.6381 13.2623 19.5502C13.1744 19.4623 13.125 19.3431 13.125 19.2188V17.3438ZM13.125 21.0938C13.125 20.9694 13.1744 20.8502 13.2623 20.7623C13.3502 20.6744 13.4694 20.625 13.5938 20.625H15.4688C15.5931 20.625 15.7123 20.6744 15.8002 20.7623C15.8881 20.8502 15.9375 20.9694 15.9375 21.0938V22.9688C15.9375 23.0931 15.8881 23.2123 15.8002 23.3002C15.7123 23.3881 15.5931 23.4375 15.4688 23.4375H13.5938C13.4694 23.4375 13.3502 23.3881 13.2623 23.3002C13.1744 23.2123 13.125 23.0931 13.125 22.9688V21.0938ZM13.125 24.8438C13.125 24.7194 13.1744 24.6002 13.2623 24.5123C13.3502 24.4244 13.4694 24.375 13.5938 24.375H15.4688C15.5931 24.375 15.7123 24.4244 15.8002 24.5123C15.8881 24.6002 15.9375 24.7194 15.9375 24.8438V26.7188C15.9375 26.8431 15.8881 26.9623 15.8002 27.0502C15.7123 27.1381 15.5931 27.1875 15.4688 27.1875H13.5938C13.4694 27.1875 13.3502 27.1381 13.2623 27.0502C13.1744 26.9623 13.125 26.8431 13.125 26.7188V24.8438ZM9.375 17.3438C9.375 17.2194 9.42439 17.1002 9.51229 17.0123C9.6002 16.9244 9.71943 16.875 9.84375 16.875H11.7188C11.8431 16.875 11.9623 16.9244 12.0502 17.0123C12.1381 17.1002 12.1875 17.2194 12.1875 17.3438V19.2188C12.1875 19.3431 12.1381 19.4623 12.0502 19.5502C11.9623 19.6381 11.8431 19.6875 11.7188 19.6875H9.84375C9.71943 19.6875 9.6002 19.6381 9.51229 19.5502C9.42439 19.4623 9.375 19.3431 9.375 19.2188V17.3438ZM9.375 21.0938C9.375 20.9694 9.42439 20.8502 9.51229 20.7623C9.6002 20.6744 9.71943 20.625 9.84375 20.625H11.7188C11.8431 20.625 11.9623 20.6744 12.0502 20.7623C12.1381 20.8502 12.1875 20.9694 12.1875 21.0938V22.9688C12.1875 23.0931 12.1381 23.2123 12.0502 23.3002C11.9623 23.3881 11.8431 23.4375 11.7188 23.4375H9.84375C9.71943 23.4375 9.6002 23.3881 9.51229 23.3002C9.42439 23.2123 9.375 23.0931 9.375 22.9688V21.0938ZM9.375 24.8438C9.375 24.7194 9.42439 24.6002 9.51229 24.5123C9.6002 24.4244 9.71943 24.375 9.84375 24.375H11.7188C11.8431 24.375 11.9623 24.4244 12.0502 24.5123C12.1381 24.6002 12.1875 24.7194 12.1875 24.8438V26.7188C12.1875 26.8431 12.1381 26.9623 12.0502 27.0502C11.9623 27.1381 11.8431 27.1875 11.7188 27.1875H9.84375C9.71943 27.1875 9.6002 27.1381 9.51229 27.0502C9.42439 26.9623 9.375 26.8431 9.375 26.7188V24.8438Z" fill="#333333"/>
<path d="M14.0625 25.3125H15V26.25H14.0625V25.3125Z" fill="#333333"/>
<path d="M10.3125 21.5625H11.25V22.5H10.3125V21.5625Z" fill="#333333"/>
<path d="M10.3125 25.3125H11.25V26.25H10.3125V25.3125Z" fill="#333333"/>
<path d="M14.0625 21.5625H15V22.5H14.0625V21.5625Z" fill="#333333"/>
</svg>
