<svg width="29" height="30" viewBox="0 0 29 30" fill="none" xmlns="http://www.w3.org/2000/svg">
<path d="M27.4285 7.50002H22.0714V1.07145C22.0714 0.479694 21.5917 0 21 0H-0.428551C-1.02031 0 -1.5 0.479694 -1.5 1.07145V25.7143C-1.5 28.0812 0.418776 30 2.78573 30H24.2143C26.5812 30 28.5 28.0812 28.5 25.7143V8.5714C28.5 7.97971 28.0203 7.50002 27.4285 7.50002ZM7.0714 5.35712H13.5C14.0917 5.35712 14.5714 5.83681 14.5714 6.42857C14.5714 7.02032 14.0917 7.50002 13.5 7.50002H7.0714C6.47965 7.50002 5.99995 7.02032 5.99995 6.42857C5.99995 5.83681 6.47971 5.35712 7.0714 5.35712ZM16.7143 25.7143H3.85712C3.26536 25.7143 2.78567 25.2346 2.78567 24.6428C2.78567 24.0511 3.26536 23.5714 3.85712 23.5714H16.7143C17.306 23.5714 17.7857 24.0511 17.7857 24.6428C17.7857 25.2346 17.306 25.7143 16.7143 25.7143ZM16.7143 21.4285H3.85712C3.26536 21.4285 2.78567 20.9488 2.78567 20.3571C2.78567 19.7653 3.26536 19.2856 3.85712 19.2856H16.7143C17.306 19.2856 17.7857 19.7653 17.7857 20.3571C17.7857 20.9488 17.306 21.4285 16.7143 21.4285ZM16.7143 17.1429H3.85712C3.26536 17.1429 2.78567 16.6632 2.78567 16.0714C2.78567 15.4797 3.26536 15 3.85712 15H16.7143C17.306 15 17.7857 15.4797 17.7857 16.0714C17.7857 16.6632 17.306 17.1429 16.7143 17.1429ZM16.7143 12.8571H3.85712C3.26536 12.8571 2.78567 12.3774 2.78567 11.7857C2.78567 11.1939 3.26536 10.7142 3.85712 10.7142H16.7143C17.306 10.7142 17.7857 11.1939 17.7857 11.7857C17.7857 12.3774 17.306 12.8571 16.7143 12.8571ZM26.3571 25.7143C26.3571 26.8977 25.3977 27.8571 24.2143 27.8571C23.0308 27.8571 22.0714 26.8977 22.0714 25.7143V9.64285H26.3572V25.7143H26.3571Z" fill="#333333"/>
</svg>
