<svg width="30" height="30" viewBox="0 0 30 30" fill="none" xmlns="http://www.w3.org/2000/svg">
<path d="M29.0625 9.37499H20.6249V0.937517C20.6249 0.419288 20.2057 0 19.6875 0H0.937517C0.419288 0 0 0.419288 0 0.937517V19.6875C0 20.2057 0.419288 20.625 0.937517 20.625H9.37499V29.0625C9.37499 29.5806 9.79428 30 10.3125 30H29.0625C29.5806 30 30 29.5807 30 29.0625V10.3125C30 9.79428 29.5806 9.37499 29.0625 9.37499ZM1.87497 18.75V1.87497H18.75V9.37499H10.3125C9.79434 9.37499 9.37499 9.79428 9.37499 10.3125V18.75H1.87497ZM18.75 11.25V18.75H11.25V11.25H18.75ZM28.125 28.125H11.25V20.6249H19.6874C20.2056 20.6249 20.6249 20.2057 20.6249 19.6874V11.25H28.125V28.125Z" fill="#333333"/>
</svg>
