<svg width="23" height="17" viewBox="0 0 23 17" fill="none" xmlns="http://www.w3.org/2000/svg">
<path d="M0.663574 0.518311V16.7533H20.6411C21.9418 16.7533 23 15.6951 23 14.3944V0.518311H0.663574ZM6.41238 9.32841C6.54562 9.32841 6.65642 9.30702 6.74461 9.26407C6.83267 9.22124 6.89572 9.15579 6.93393 9.06755C6.97195 8.97948 6.99703 8.90677 7.00898 8.84964C7.02082 8.79239 7.03154 8.71393 7.04109 8.61386C7.06008 8.39009 7.24354 8.27806 7.59123 8.27806C7.79602 8.27806 7.94133 8.31497 8.02711 8.3888C8.11283 8.46274 8.15566 8.60208 8.15566 8.80681C8.15566 9.26888 7.98773 9.63333 7.65193 9.89999C7.31613 10.1669 6.88617 10.3001 6.36228 10.3001C5.85252 10.3001 5.43932 10.1644 5.12262 9.89284C4.8058 9.62132 4.64742 9.19511 4.64742 8.61392V6.72052C4.64742 6.13938 4.8058 5.713 5.12262 5.44159C5.43932 5.17007 5.85252 5.03437 6.36228 5.03437C6.88623 5.03437 7.31613 5.16058 7.65193 5.41306C7.98773 5.6656 8.15566 6.01323 8.15566 6.4562C8.15566 6.6611 8.11283 6.80038 8.02711 6.87421C7.94133 6.94815 7.79848 6.98495 7.59838 6.98495C7.24113 6.98495 7.05533 6.87316 7.04109 6.64915C7.0268 6.22042 6.8148 6.00608 6.40518 6.00608C5.97644 6.00608 5.76211 6.24427 5.76211 6.72064V8.61403C5.76211 9.09023 5.97879 9.32841 6.41238 9.32841ZM12.1177 10.1143C11.9677 10.2383 11.8092 10.3001 11.6425 10.3001C11.4757 10.3001 11.3567 10.2311 11.2853 10.0929L10.3065 8.19233H9.83484V9.91435C9.83484 10.024 9.78006 10.1085 9.67049 10.1679C9.56086 10.2276 9.4299 10.2572 9.2775 10.2572C9.12498 10.2572 8.99402 10.2275 8.88451 10.1679C8.77488 10.1084 8.72015 10.024 8.72015 9.91435V5.37005C8.72015 5.27964 8.75226 5.20101 8.81666 5.13433C8.88099 5.06765 8.96309 5.03431 9.06316 5.03431H10.5422C11.7139 5.03431 12.2999 5.54401 12.2999 6.56331C12.2999 7.3064 12.0116 7.78997 11.4353 8.01374L12.307 9.59284C12.3308 9.62618 12.3427 9.66913 12.3427 9.7214C12.3427 9.85962 12.2677 9.99058 12.1177 10.1143ZM17.0441 10.1679C16.9345 10.2276 16.8035 10.2572 16.6511 10.2572C16.4987 10.2572 16.3676 10.2275 16.2581 10.1679C16.1485 10.1084 16.0938 10.024 16.0938 9.91435V7.23491L15.4078 8.40667C15.3268 8.54483 15.203 8.61386 15.0363 8.61386C14.8743 8.61386 14.7576 8.54483 14.6862 8.40667L14.0074 7.16343V9.91435C14.0074 10.024 13.9525 10.1085 13.843 10.1679C13.7334 10.2276 13.6024 10.2572 13.45 10.2572C13.2975 10.2572 13.1665 10.2275 13.057 10.1679C12.9474 10.1084 12.8927 10.024 12.8927 9.91435V5.59159C12.8927 5.4011 12.9462 5.2606 13.0535 5.17007C13.1606 5.0796 13.2928 5.03437 13.45 5.03437C13.6644 5.03437 13.8275 5.06647 13.9395 5.13081C14.0513 5.19515 14.1763 5.34878 14.3146 5.59165L15.0505 6.87773L15.7864 5.59165C15.9245 5.34872 16.0496 5.19503 16.1616 5.13081C16.2734 5.06647 16.4367 5.03437 16.651 5.03437C16.8082 5.03437 16.9404 5.0796 17.0476 5.17007C17.1547 5.2606 17.2083 5.4011 17.2083 5.59159V9.91435H17.2084C17.2085 10.0239 17.1536 10.1085 17.0441 10.1679Z" fill="#333333"/>
</svg>
