<svg width="30" height="30" viewBox="0 0 30 30" fill="none" xmlns="http://www.w3.org/2000/svg">
<path d="M28.6239 27.2661H1.36338C0.6102 27.2661 0 27.8763 0 28.6301C0 29.3827 0.6102 29.9929 1.36338 29.9929H28.6232C29.3764 29.9929 29.9866 29.3827 29.9866 28.6301C29.986 27.8763 29.3758 27.2661 28.6239 27.2661Z" fill="#333333"/>
<path d="M3.06699 23.7217C2.31381 23.7217 1.70361 24.3319 1.70361 25.0851C1.70361 25.8383 2.31381 26.4491 3.06699 26.4491H26.9197C27.6728 26.4491 28.283 25.8383 28.283 25.0851C28.283 24.3319 27.6728 23.7217 26.9197 23.7217H26.5795V11.4539H26.9197C27.2969 11.4539 27.6007 11.1488 27.6007 10.7728C27.6007 10.3969 27.2956 10.0918 26.9197 10.0918H3.06699C2.6904 10.0918 2.38594 10.3969 2.38594 10.7728C2.38594 11.1488 2.69104 11.4539 3.06699 11.4539H3.40783V23.7211H3.06699V23.7217ZM23.8527 11.4539V23.7211H19.7639V11.4539H23.8527ZM17.0371 11.4539V23.7211H12.9483V11.4539H17.0371ZM6.13331 11.4539H10.2222V23.7211H6.13331V11.4539Z" fill="#333333"/>
<path d="M1.3634 8.86639H28.6233C28.6277 8.86639 28.6328 8.86639 28.6367 8.86639C29.3905 8.86639 30 8.25619 30 7.50302C30 6.90431 29.6145 6.39687 29.079 6.21304L15.5537 0.127003C15.1982 -0.0325686 14.7916 -0.0325686 14.4355 0.127003L0.804264 6.26028C0.217681 6.52453 -0.104653 7.16153 0.0306635 7.78961C0.165342 8.41768 0.720649 8.86639 1.3634 8.86639Z" fill="#333333"/>
</svg>
