<svg width="30" height="26" viewBox="0 0 30 26" fill="none" xmlns="http://www.w3.org/2000/svg">
<path d="M6.99993 9.75C6.87293 9.75 6.76043 9.836 6.72743 9.9585L0.999928 24.25V24.75C0.999928 25.117 0.976428 25.25 1.28243 25.25H23.6619C24.2399 25.25 24.7489 24.8605 24.8869 24.3435L29.9999 10.25C29.9999 10.25 29.9999 9.9375 29.9999 9.75H6.99993Z" fill="#333333"/>
<path d="M6.3655 8.75H26.5H27V5.616C27 4.8625 26.387 4.25 25.634 4.25H13.2575L10.7575 0.75H1.366C0.613 0.75 0 1.363 0 2.116V23.014L5.141 9.6555C5.2785 9.1395 5.7875 8.75 6.3655 8.75Z" fill="#333333"/>
</svg>
