<svg width="30" height="26" viewBox="0 0 30 26" fill="none" xmlns="http://www.w3.org/2000/svg">
<path d="M29.5316 17.7545C29.2192 17.4421 28.8397 17.2858 28.3931 17.2858H26.7861V14.0714C26.7861 13.4911 26.5741 12.9886 26.1501 12.5647C25.7261 12.1404 25.2234 11.9284 24.6431 11.9284H16.0717V8.71403H17.6786C18.1253 8.71403 18.5047 8.55782 18.8172 8.24529C19.1296 7.93293 19.2857 7.55349 19.2857 7.10691V1.74988C19.2857 1.30342 19.1296 0.923862 18.8172 0.611505C18.5047 0.298972 18.1253 0.142822 17.6786 0.142822H12.3215C11.8751 0.142822 11.4957 0.298972 11.1832 0.611505C10.8706 0.923862 10.7145 1.30336 10.7145 1.74988V7.10691C10.7145 7.55349 10.8706 7.93275 11.1832 8.24529C11.4955 8.55782 11.8751 8.71403 12.3215 8.71403H13.9286V11.9284H5.35721C4.77682 11.9284 4.27466 12.1406 3.85042 12.5647C3.42631 12.9886 3.21434 13.4911 3.21434 14.0714V17.2858H1.60699C1.16071 17.2858 0.781155 17.4421 0.468623 17.7545C0.156149 18.067 0 18.4462 0 18.8929V24.2498C0 24.6964 0.156149 25.0759 0.468623 25.3883C0.781155 25.7008 1.16071 25.8569 1.60699 25.8569H6.96432C7.4106 25.8569 7.79015 25.7006 8.10268 25.3883C8.41522 25.0759 8.57131 24.6964 8.57131 24.2498V18.8929C8.57131 18.4462 8.41522 18.067 8.10268 17.7545C7.79015 17.4421 7.4106 17.2858 6.96432 17.2858H5.35703V14.0714H13.9285V17.2858H12.3213C11.8749 17.2858 11.4955 17.4421 11.183 17.7545C10.8704 18.067 10.7144 18.4462 10.7144 18.8929V24.2498C10.7144 24.6964 10.8704 25.0759 11.183 25.3883C11.4953 25.7008 11.8749 25.8569 12.3213 25.8569H17.6784C18.1251 25.8569 18.5044 25.7006 18.817 25.3883C19.1293 25.0757 19.2858 24.6964 19.2858 24.2498V18.8929C19.2858 18.4462 19.1297 18.067 18.817 17.7545C18.5044 17.4421 18.1251 17.2858 17.6784 17.2858H16.0716V14.0714H24.6432V17.2858H23.0358C22.5896 17.2858 22.2099 17.4421 21.8973 17.7545C21.585 18.067 21.4289 18.4462 21.4289 18.8929V24.2498C21.4289 24.6964 21.585 25.0759 21.8973 25.3883C22.2099 25.7008 22.5896 25.8569 23.0358 25.8569H28.3931C28.8394 25.8569 29.2189 25.7006 29.5313 25.3883C29.8439 25.0759 30 24.6964 30 24.2498V18.8929C30 18.4462 29.8439 18.067 29.5316 17.7545Z" fill="#333333"/>
</svg>
