<svg width="30" height="28" viewBox="0 0 30 28" fill="none" xmlns="http://www.w3.org/2000/svg">
<path d="M7.64521 21.6685C7.38319 21.9305 7.17139 22.4425 7.17139 22.8125V27.631H9.96875V20.0151C9.96875 19.6451 9.75694 19.5567 9.49492 19.8187L7.64521 21.6685Z" fill="#333333"/>
<path d="M19.9323 17.1033C19.671 17.3653 19.4585 17.8774 19.4585 18.248V27.6319H22.2559V15.4473C22.2559 15.0773 22.044 14.9895 21.782 15.2515L19.9323 17.1033Z" fill="#333333"/>
<path d="M24.0267 13.0024C23.7647 13.2638 23.5522 13.7758 23.5522 14.1457V27.6311H26.1532V11.5495C26.1532 11.1796 25.9407 11.0911 25.6787 11.3531L24.0267 13.0024Z" fill="#333333"/>
<path d="M15.9192 21.1156C15.9192 21.1156 15.7945 21.2409 15.6404 21.3951C15.487 21.5492 15.3623 21.9747 15.3623 22.3447V27.6311H18.1597V19.5473C18.1597 19.1774 17.9472 19.0889 17.6852 19.3509L15.9192 21.1156Z" fill="#333333"/>
<path d="M11.7411 19.6941C11.4791 19.4328 11.2666 19.5206 11.2666 19.8905V27.6311H14.064V22.6818C14.064 22.3118 13.8629 21.8112 13.6143 21.564L13.1646 21.1163L11.7411 19.6941Z" fill="#333333"/>
<path d="M4.12459 25.1911L3.22121 26.0959C2.95985 26.3579 2.74805 26.8077 2.74805 27.1012V27.632H5.87041V24.1128C5.87041 23.7429 5.6586 23.655 5.39659 23.9171L4.12459 25.1911Z" fill="#333333"/>
<path d="M29.5266 11.4268C29.788 11.6889 30.0005 11.6004 30.0005 11.2305V1.65426C30.0005 0.968629 29.3437 0.368164 28.6621 0.368164H19.1415C18.7715 0.368164 18.6831 0.580631 18.9451 0.842649L22.3315 4.23174L20.9503 5.60696L14.544 12.0192L11.1556 8.63155C10.8936 8.36953 10.47 8.37019 10.208 8.63155L0.785285 18.061C-0.26155 19.1085 -0.260891 20.8061 0.785945 21.8528L0.851656 21.9192C1.89849 22.966 3.59609 22.966 4.64218 21.9185L10.6812 15.8762L14.0696 19.2613C14.3317 19.5226 14.7559 19.5226 15.0179 19.2613L26.1879 8.08937L29.5266 11.4268Z" fill="#333333"/>
</svg>
