<svg width="28" height="30" viewBox="0 0 28 30" fill="none" xmlns="http://www.w3.org/2000/svg">
<path d="M27.5982 26.0099V30H0.401855V26.009C0.401855 24.1248 2.02626 21.8053 4.01065 20.8627L8.42633 18.7649L11.4916 25.1525L13.061 20.8973C13.3705 20.9558 13.6773 21.0339 14 21.0339C14.3228 21.0339 14.6287 20.9558 14.939 20.8973L16.4286 24.9433L19.4336 18.6939L23.992 20.8619C25.9738 21.8044 27.5982 24.124 27.5982 26.0099ZM4.4132 12.0252V9.14347C4.4132 8.6549 4.66768 8.22664 5.05162 7.98014C5.56678 3.4953 9.38128 0 14.0018 0C18.6223 0 22.4377 3.4953 22.9537 7.98014C23.3368 8.22664 23.5912 8.6549 23.5912 9.14347V12.0252C23.5912 12.7904 22.9715 13.4111 22.2054 13.4111C21.4393 13.4111 20.8195 12.7904 20.8195 12.0252V11.4196C20.0693 15.1924 17.3073 18.6948 14.0027 18.6948C10.698 18.6948 7.93599 15.1924 7.18586 11.4196V12.0252C7.18586 12.6459 6.77355 13.1655 6.21051 13.3419C6.76203 15.219 7.98565 16.8408 9.67566 17.9048C9.98777 17.8019 10.3815 17.8214 10.7636 18.02C11.3772 18.3392 11.6902 18.9599 11.4579 19.4033C11.2265 19.8466 10.542 19.9459 9.92482 19.6258C9.47439 19.3909 9.18887 18.9963 9.15873 18.6274C7.2231 17.3896 5.85052 15.4948 5.28393 13.3091C4.77497 13.1052 4.4132 12.6086 4.4132 12.0252ZM5.99593 7.6565C6.03761 7.65916 6.07751 7.66005 6.11741 7.67512C6.2176 7.71236 6.29031 7.78418 6.34085 7.86842C6.64144 7.9961 6.88084 8.2293 7.02803 8.51835C7.43679 4.687 10.3983 2.66005 14 2.66005C17.6017 2.66005 20.5632 4.687 20.972 8.51835C21.175 8.12023 21.5607 7.83561 22.0227 7.7762C21.4233 3.88101 18.0592 0.885795 14 0.885795C9.98245 0.886682 6.64498 3.82071 5.99593 7.6565Z" fill="#333333"/>
</svg>
