<svg width="30" height="30" viewBox="0 0 30 30" fill="none" xmlns="http://www.w3.org/2000/svg">
<path d="M28.4556 11.6667H25.6489C25.1978 11.6667 24.8261 11.4183 24.6533 11.0017C24.4806 10.585 24.5683 10.1461 24.8867 9.82722L26.8711 7.84333C27.1628 7.55167 27.3233 7.16333 27.3233 6.75111C27.3233 6.33833 27.1628 5.95056 26.8711 5.65833L24.3417 3.12889C23.7583 2.54556 22.7411 2.54444 22.1567 3.12889L20.1728 5.11278C19.9089 5.37667 19.6189 5.43167 19.4217 5.43167C19.1439 5.43167 18.8678 5.32278 18.6639 5.13222C18.5133 4.99111 18.3333 4.74111 18.3333 4.35111V1.54444C18.3333 0.692778 17.6406 0 16.7889 0H13.2111C12.3594 0 11.6667 0.692778 11.6667 1.54444V4.35111C11.6667 5.02778 11.1128 5.43167 10.5772 5.43167C10.3806 5.43167 10.0906 5.37611 9.82667 5.11278L7.84278 3.12889C7.25833 2.54444 6.24111 2.54556 5.65778 3.12889L3.12833 5.65833C2.83667 5.95 2.67611 6.33833 2.67611 6.75111C2.67611 7.16333 2.83667 7.55111 3.12833 7.84333L5.11278 9.82722C5.43111 10.1461 5.51833 10.585 5.34611 11.0017C5.17389 11.4183 4.80222 11.6667 4.35111 11.6667H1.54444C0.692778 11.6667 0 12.3594 0 13.2111V16.7878C0 17.64 0.692778 18.3333 1.54444 18.3333H4.35111C4.80222 18.3333 5.17389 18.5817 5.34667 18.9983C5.51944 19.415 5.43167 19.8539 5.11333 20.1728L3.12889 22.1567C2.83722 22.4483 2.67667 22.8367 2.67667 23.2489C2.67667 23.6617 2.83722 24.0494 3.12889 24.3417L5.65833 26.8711C6.24222 27.455 7.25889 27.4561 7.84333 26.8711L9.82722 24.8872C10.0911 24.6233 10.3811 24.5683 10.5783 24.5683C11.1133 24.5683 11.6672 24.9728 11.6672 25.6489V28.455C11.6667 29.3067 12.3594 30 13.2111 30H16.7883C17.64 30 18.3328 29.3067 18.3328 28.455V25.6489C18.3328 24.9722 18.8867 24.5683 19.4217 24.5683C19.6183 24.5683 19.9089 24.6239 20.1728 24.8872L22.1567 26.8711C22.7411 27.4556 23.7583 27.4544 24.3417 26.8711L26.8711 24.3417C27.1628 24.05 27.3233 23.6617 27.3233 23.2489C27.3233 22.8367 27.1628 22.4489 26.8711 22.1567L24.8867 20.1728C24.5683 19.8539 24.4811 19.415 24.6533 18.9983C24.8256 18.5817 25.1978 18.3333 25.6489 18.3333H28.4556C29.3072 18.3333 30 17.64 30 16.7883V13.2111C30 12.3594 29.3072 11.6667 28.4556 11.6667ZM18.8889 15C18.8889 17.1439 17.1439 18.8889 15 18.8889C12.8561 18.8889 11.1111 17.1439 11.1111 15C11.1111 12.8561 12.8561 11.1111 15 11.1111C17.1439 11.1111 18.8889 12.8561 18.8889 15Z" fill="#333333"/>
</svg>
