<svg width="18" height="20" viewBox="0 0 18 20" fill="none" xmlns="http://www.w3.org/2000/svg">
<path d="M17.2827 18.3927C17.0945 14.8182 13.8819 13.3395 13.8819 13.3395C13.1143 12.9806 11.7227 12.2781 10.8104 11.8137C11.9793 10.5348 12.3246 8.44963 12.3783 8.15293C12.6223 6.81044 12.4995 5.1488 12.4995 5.1488C12.2764 1.91758 9.0141 1.86683 8.67247 1.87023C8.65361 1.87023 8.64136 1.87043 8.64136 1.87043C8.64136 1.87043 8.63093 1.87023 8.61548 1.87043C8.30574 1.86641 5.00749 1.89912 4.78321 5.1488C4.78321 5.1488 4.66043 6.81024 4.90439 8.15293C4.92024 8.2394 4.96158 8.48031 5.04001 8.8061C5.65449 9.61277 6.60315 10.0084 7.38175 10.202C7.47966 10.1069 7.61306 10.0477 7.7609 10.0477H9.18002C9.48035 10.0477 9.72348 10.291 9.72348 10.5913C9.72348 10.8919 9.48035 11.1354 9.18002 11.1354H7.7609C7.53681 11.1354 7.34524 11.0002 7.26158 10.8074C6.68083 10.6661 6.00877 10.4202 5.40893 9.99712C5.64825 10.6184 5.98929 11.2848 6.47276 11.8139C5.56037 12.2783 4.16935 12.9806 3.40121 13.3395C3.40121 13.3395 0.189048 14.8182 0.000453056 18.3927C0.000453056 18.3927 -0.0553315 18.9871 1.07111 19.2122C1.07111 19.2122 4.522 19.9998 8.64175 19.9998C12.7619 19.9998 16.2128 19.2122 16.2128 19.2122C17.339 18.9871 17.2827 18.3927 17.2827 18.3927Z" fill="#333333"/>
<path d="M3.67882 9.31193H4.02167V5.28506C4.02248 5.27503 4.02487 5.26539 4.02487 5.25516V4.66055C4.02487 3.60051 4.35206 2.74129 4.99742 2.10659C6.33229 0.793184 8.61243 0.81106 8.65093 0.816452C8.67802 0.814459 10.9391 0.781942 12.28 2.09433C12.9297 2.73028 13.2593 3.59349 13.2593 4.66055V5.28927C13.2593 5.29548 13.2609 5.30111 13.2609 5.30712V9.3119H13.6038C14.4475 9.3119 15.1314 8.62801 15.1314 7.78445V6.31637C15.1314 5.63771 14.6883 5.06316 14.0756 4.86434V4.66071C14.0756 3.36597 13.6634 2.30636 12.8511 1.51113C11.2675 -0.0387458 8.73802 0.00138488 8.64955 0.000175723C8.54325 -0.000837352 6.01131 -0.0319159 4.4285 1.5208C3.61905 2.31521 3.2084 3.37162 3.2084 4.66055V4.86336C2.59493 5.06215 2.15137 5.63712 2.15137 6.31617V7.78425C2.1514 8.62804 2.83545 9.31193 3.67882 9.31193Z" fill="#333333"/>
</svg>
